<?xml version="1.0" standalone="no"?>
<!DOCTYPE svg PUBLIC "-//W3C//DTD SVG 20010904//EN"
 "http://www.w3.org/TR/2001/REC-SVG-20010904/DTD/svg10.dtd">
<svg version="1.0" xmlns="http://www.w3.org/2000/svg"
 width="243.000000pt" height="350.000000pt" viewBox="0 0 243.000000 350.000000"
 preserveAspectRatio="xMidYMid meet">

<g transform="translate(0.000000,350.000000) scale(0.100000,-0.100000)"
fill="#000000" stroke="none">
<path d="M0 2066 l0 -1435 135 -3 135 -3 2 145 c3 308 7 378 26 475 11 55 23
150 27 210 7 118 28 218 77 358 30 85 61 127 94 127 10 0 14 14 14 48 0 94 76
153 167 131 44 -12 93 -51 93 -75 0 -17 21 -18 56 -2 22 10 25 17 21 45 l-6
33 64 0 c35 0 67 4 70 10 3 5 10 29 14 52 8 42 8 42 19 17 13 -33 81 -87 124
-100 45 -12 51 -12 44 6 -4 12 3 15 29 15 32 0 35 3 35 28 0 16 -9 37 -20 47
-27 24 -26 53 3 58 21 3 20 4 -8 16 -28 12 -28 14 -10 21 31 13 83 11 88 -2 2
-7 8 -10 12 -5 15 13 -11 28 -53 30 -27 1 -42 6 -42 14 0 7 5 13 10 13 6 0 10
9 10 20 0 11 -5 20 -12 20 -6 0 -9 3 -5 6 3 3 2 17 -4 31 -6 18 -6 22 3 17 8
-5 9 11 5 62 -4 38 -7 87 -7 109 0 30 -3 36 -12 27 -18 -18 -32 -14 -45 13
-10 23 -9 25 12 25 13 0 29 8 35 18 10 15 11 14 7 -5 -3 -13 -1 -23 4 -23 5 0
10 6 10 13 1 6 3 19 4 27 1 8 3 21 4 28 0 6 7 12 14 12 6 0 25 16 41 36 22 28
33 34 52 30 17 -5 24 -2 24 8 0 22 27 13 49 -16 18 -22 21 -41 21 -121 0 -88
1 -95 19 -90 17 4 18 -2 17 -76 -2 -75 -4 -84 -29 -107 -19 -18 -27 -35 -27
-60 0 -19 -7 -49 -16 -65 -12 -25 -13 -39 -4 -82 6 -29 16 -59 23 -68 7 -9 46
-31 87 -48 41 -18 81 -35 88 -38 8 -4 12 7 12 36 0 41 0 41 38 41 37 0 39 -2
67 -62 15 -35 29 -64 29 -64 1 -1 15 -5 31 -8 29 -6 31 -4 65 64 34 69 36 70
70 68 l35 -3 3 -95 c2 -64 7 -99 17 -110 20 -22 82 -231 116 -395 27 -123 31
-165 35 -354 2 -117 6 -216 9 -220 2 -4 5 -67 6 -140 0 -72 3 -141 6 -151 5
-19 15 -20 154 -20 l149 0 0 1435 0 1435 -1215 0 -1215 0 0 -1434z m730 1086
c37 -56 70 -107 73 -114 3 -7 6 37 6 98 l1 112 35 4 35 4 0 -178 0 -178 -27 0
c-38 0 -40 2 -108 107 -33 50 -63 92 -67 92 -5 1 -8 -44 -8 -99 l0 -100 -35 0
-35 0 0 179 0 179 31 -3 c27 -2 39 -15 99 -103z m395 51 c9 -27 32 -87 51
-136 42 -108 42 -117 5 -117 -17 0 -32 3 -34 8 -3 4 -36 7 -73 7 -68 -1 -68
-1 -78 -33 -8 -28 -13 -32 -42 -32 -31 0 -32 1 -24 28 6 22 54 149 109 295 8
21 17 27 39 27 26 0 31 -6 47 -47z m354 33 c49 -26 61 -56 61 -155 0 -103 -8
-128 -54 -159 -35 -24 -129 -31 -142 -11 -4 8 1 9 17 5 20 -6 21 -5 6 4 -9 6
-21 9 -26 6 -15 -10 -41 5 -41 23 0 9 7 27 16 39 8 12 12 22 9 22 -13 0 -33
-28 -38 -51 -4 -21 -4 -20 -6 6 -1 17 -3 87 -4 158 l-3 127 89 0 c57 0 98 -5
116 -14z m306 -88 c41 -110 66 -176 84 -220 10 -28 10 -28 -27 -28 -34 0 -39
3 -51 36 -9 25 -17 34 -28 30 -8 -3 -37 -6 -65 -6 -46 0 -51 -2 -61 -30 -9
-25 -17 -30 -44 -30 -18 0 -33 3 -33 8 0 4 14 43 31 87 16 44 44 119 61 168
31 84 32 87 63 87 31 0 32 -2 70 -102z m337 -372 c54 -19 112 -73 139 -130 45
-92 23 -230 -45 -289 -12 -10 -30 -26 -42 -36 -74 -63 -235 -52 -312 22 -57
54 -85 122 -84 199 1 73 14 107 65 164 64 74 184 104 279 70z m-1699 -687 c31
-26 37 -36 37 -70 0 -75 -51 -119 -140 -119 l-50 0 0 -65 0 -65 -35 0 -35 0 0
175 0 175 93 0 c88 0 94 -1 130 -31z m1831 -1 l2 -28 -88 0 -88 0 0 -40 0 -40
75 0 75 0 0 -34 c0 -31 -2 -33 -32 -33 -18 0 -52 -1 -75 -1 l-43 -2 0 -40 0
-40 85 0 85 0 0 -32 0 -33 -119 3 -119 3 -2 175 -1 175 122 -3 122 -3 1 -27z"/>
<path d="M831 3064 c0 -11 3 -14 6 -6 3 7 2 16 -1 19 -3 4 -6 -2 -5 -13z"/>
<path d="M1054 3085 l-20 -63 50 -4 c28 -3 56 0 61 4 6 6 4 7 -5 3 -12 -4 -20
9 -35 52 -10 32 -21 61 -24 65 -3 4 -15 -22 -27 -57z"/>
<path d="M981 2994 c0 -11 3 -14 6 -6 3 7 2 16 -1 19 -3 4 -6 -2 -5 -13z"/>
<path d="M1095 2990 l-30 -8 36 -1 c20 0 52 -4 70 -8 32 -6 33 -5 17 10 -17
18 -43 20 -93 7z"/>
<path d="M1395 3191 l-50 -6 0 -115 0 -115 50 3 c33 1 54 8 63 19 18 25 16
177 -3 193 -8 7 -12 16 -9 21 3 5 4 8 2 7 -2 -1 -25 -4 -53 -7z"/>
<path d="M1320 2950 c0 -5 5 -10 11 -10 5 0 7 5 4 10 -3 6 -8 10 -11 10 -2 0
-4 -4 -4 -10z"/>
<path d="M1388 2928 c9 -9 15 -9 24 0 9 9 7 12 -12 12 -19 0 -21 -3 -12 -12z"/>
<path d="M1450 2930 c-9 -6 -10 -10 -3 -10 6 0 15 5 18 10 8 12 4 12 -15 0z"/>
<path d="M1696 3098 c-9 -29 -20 -59 -23 -65 -3 -9 9 -13 42 -13 36 0 46 3 42
14 -3 8 -11 34 -18 57 -18 64 -23 65 -43 7z"/>
<path d="M1597 2929 c7 -7 15 -10 18 -7 3 3 -2 9 -12 12 -14 6 -15 5 -6 -5z"/>
<path d="M1965 2685 c-3 -8 -7 -21 -9 -28 -2 -8 9 -13 30 -14 20 -1 34 3 34
10 0 8 3 8 12 -1 19 -19 28 -14 27 16 l-1 27 -8 -25 c-5 -14 -8 -18 -9 -9 -1
9 -9 23 -18 30 -11 9 -14 10 -9 2 4 -7 2 -21 -3 -30 -9 -16 -11 -15 -11 7 -1
14 -4 19 -7 13 -2 -7 -9 -13 -15 -13 -6 0 -8 7 -4 15 3 8 3 15 0 15 -2 0 -7
-7 -9 -15z"/>
<path d="M2070 2665 c0 -17 5 -25 13 -22 6 2 12 12 12 22 0 10 -6 20 -12 23
-8 2 -13 -6 -13 -23z"/>
<path d="M1824 2595 c-4 -8 -4 -22 0 -30 7 -20 36 -8 36 15 0 23 -29 35 -36
15z"/>
<path d="M1870 2580 c0 -17 6 -26 18 -27 12 -1 17 6 17 27 0 21 -5 28 -17 27
-12 -1 -18 -10 -18 -27z"/>
<path d="M1933 2603 c-15 -6 -17 -53 -3 -53 6 0 13 6 16 14 8 22 1 44 -13 39z"/>
<path d="M2124 2595 c-4 -8 -4 -22 0 -30 6 -17 26 -21 26 -5 0 6 -4 10 -10 10
-5 0 -10 5 -10 11 0 6 11 2 24 -9 21 -16 38 -19 77 -13 3 1 5 11 5 24 0 19 -5
22 -37 22 -28 0 -35 -4 -32 -15 3 -11 1 -10 -10 3 -17 21 -26 22 -33 2z m84
-18 c8 -10 6 -13 -7 -13 -10 0 -18 6 -18 13 0 7 4 13 7 13 4 0 12 -6 18 -13z"/>
<path d="M1970 2576 c0 -19 4 -23 20 -19 11 3 20 10 20 17 0 6 5 4 10 -4 8
-12 10 -11 10 8 0 22 -18 26 -32 7 -5 -6 -8 -5 -8 3 0 6 -4 12 -10 12 -5 0
-10 -11 -10 -24z"/>
<path d="M2041 2579 c-1 -23 2 -26 24 -21 25 4 37 42 14 42 -6 0 -9 -7 -5 -15
3 -9 0 -15 -9 -15 -7 0 -16 8 -18 18 -3 11 -5 8 -6 -9z"/>
<path d="M2102 2575 c0 -16 2 -22 5 -12 2 9 2 23 0 30 -3 6 -5 -1 -5 -18z"/>
<path d="M2124 2533 c4 -7 3 -13 -1 -13 -17 0 -34 -40 -24 -58 6 -9 11 -12 11
-6 0 17 29 25 49 15 14 -8 17 -4 17 25 0 22 -4 30 -10 24 -6 -6 -17 -4 -30 8
-11 9 -16 11 -12 5z m39 -53 c-3 -3 -11 4 -19 14 -13 18 -14 18 -14 2 0 -9 -5
-14 -10 -11 -8 5 -7 11 1 21 10 12 14 12 29 -3 10 -10 15 -20 13 -23z"/>
<path d="M1875 2502 c-8 -22 2 -30 41 -30 25 0 33 3 23 9 -10 6 -10 9 -1 9 6
0 12 6 12 13 0 18 -68 17 -75 -1z"/>
<path d="M1971 2498 c-1 -20 4 -28 15 -28 12 0 14 4 7 13 -6 6 -13 19 -16 27
-3 9 -6 3 -6 -12z"/>
<path d="M2011 2493 c0 -25 1 -26 9 -8 7 17 9 17 9 3 1 -20 21 -25 21 -5 0 8
3 7 10 -3 8 -13 11 -12 24 5 10 14 11 22 3 27 -6 4 -15 2 -19 -5 -6 -9 -8 -8
-8 3 0 12 -2 12 -9 1 -6 -9 -11 -10 -15 -2 -13 20 -26 11 -25 -16z"/>
<path d="M2157 2449 c7 -7 15 -10 18 -7 3 3 -2 9 -12 12 -14 6 -15 5 -6 -5z"/>
<path d="M1896 2425 c7 -18 6 -19 -11 -5 -17 14 -17 13 -10 -9 5 -16 4 -21 -4
-17 -7 5 -8 1 -4 -10 4 -11 8 -13 11 -6 2 7 7 10 12 7 14 -9 23 36 10 49 -8 8
-9 6 -4 -9z"/>
<path d="M1981 2423 c-6 -11 -10 -12 -15 -4 -12 18 -43 12 -49 -10 -6 -24 17
-37 37 -20 11 9 16 9 22 -1 6 -9 11 -4 15 17 l7 30 1 -27 c1 -29 14 -37 27
-17 4 8 9 7 15 -2 6 -10 9 -8 9 9 0 13 -4 20 -10 17 -5 -3 -10 -2 -10 3 0 17
-40 21 -49 5z m-31 -18 c0 -8 -4 -15 -8 -15 -5 0 -9 7 -9 15 0 8 4 15 9 15 4
0 8 -7 8 -15z m67 -7 c-3 -8 -6 -5 -6 6 -1 11 2 17 5 13 3 -3 4 -12 1 -19z"/>
<path d="M2229 2423 c-13 -16 -12 -17 4 -4 9 7 17 15 17 17 0 8 -8 3 -21 -13z"/>
<path d="M2062 2406 c2 -16 11 -21 33 -22 32 -1 58 13 50 27 -6 9 29 4 48 -7
9 -6 9 -4 -1 8 -9 12 -29 16 -73 15 -55 -1 -60 -3 -57 -21z m68 -2 c0 -8 -5
-12 -10 -9 -6 4 -8 11 -5 16 9 14 15 11 15 -7z m-40 2 c0 -3 -4 -8 -10 -11 -5
-3 -10 -1 -10 4 0 6 5 11 10 11 6 0 10 -2 10 -4z"/>
<path d="M2156 2403 c-11 -11 -6 -23 9 -23 8 0 15 4 15 9 0 13 -16 22 -24 14z"/>
<path d="M268 2014 c-2 -25 -1 -47 1 -50 9 -8 83 -4 102 6 22 12 26 59 7 78
-7 7 -33 12 -59 12 l-47 0 -4 -46z"/>
<path d="M1246 2681 c-4 -7 -5 -15 -2 -18 9 -9 19 4 14 18 -4 11 -6 11 -12 0z"/>
<path d="M1277 2643 c-13 -13 -7 -21 13 -16 13 3 20 0 20 -9 0 -7 -10 -14 -22
-15 -19 -2 -37 -18 -38 -34 0 -4 9 -17 19 -30 16 -19 23 -22 37 -13 29 17 28
33 -1 28 -15 -3 -24 -1 -21 4 7 12 64 13 71 1 7 -11 25 -12 25 -1 0 4 -14 13
-31 19 -36 14 -37 46 -1 51 12 2 22 8 22 13 0 10 -83 13 -93 2z"/>
<path d="M1451 2484 c0 -11 3 -14 6 -6 3 7 2 16 -1 19 -3 4 -6 -2 -5 -13z"/>
<path d="M1245 2420 c-3 -5 1 -10 9 -10 8 0 18 5 21 10 3 6 -1 10 -9 10 -8 0
-18 -4 -21 -10z"/>
<path d="M1333 2156 c-26 -27 -31 -45 -7 -26 14 12 39 50 32 50 -2 0 -13 -11
-25 -24z"/>
<path d="M1392 2106 c7 -8 15 -12 17 -11 5 6 -10 25 -20 25 -5 0 -4 -6 3 -14z"/>
<path d="M998 2103 c6 -2 18 -2 25 0 6 3 1 5 -13 5 -14 0 -19 -2 -12 -5z"/>
<path d="M1052 2084 c10 -10 20 -15 24 -12 3 4 -5 12 -18 18 -22 12 -22 12 -6
-6z"/>
<path d="M988 2063 c7 -3 16 -2 19 1 4 3 -2 6 -13 5 -11 0 -14 -3 -6 -6z"/>
<path d="M602 2052 c-7 -5 -15 -26 -19 -46 -5 -34 -4 -38 13 -33 10 3 38 9 62
12 50 8 62 27 37 55 -19 21 -69 27 -93 12z"/>
<path d="M1026 2048 c3 -5 10 -6 15 -3 13 9 11 12 -6 12 -8 0 -12 -4 -9 -9z"/>
<path d="M1112 2044 c-7 -8 -8 -14 -3 -14 10 0 25 19 20 25 -2 1 -10 -3 -17
-11z"/>
<path d="M1181 2024 c0 -11 3 -14 6 -6 3 7 2 16 -1 19 -3 4 -6 -2 -5 -13z"/>
<path d="M1040 2005 c0 -8 5 -15 11 -15 5 0 8 4 5 9 -4 5 0 12 6 14 8 3 6 6
-4 6 -10 1 -18 -6 -18 -14z"/>
<path d="M1181 1948 c1 -55 5 -50 11 15 2 20 0 37 -4 37 -4 0 -7 -24 -7 -52z"/>
<path d="M1723 1900 c32 -58 60 -64 82 -18 14 28 14 30 0 14 -8 -11 -15 -23
-15 -28 0 -16 -39 -8 -44 10 -4 9 -16 28 -27 42 -17 21 -17 17 4 -20z"/>
<path d="M1870 1925 c0 -8 2 -15 4 -15 2 0 6 7 10 15 3 8 1 15 -4 15 -6 0 -10
-7 -10 -15z"/>
<path d="M715 1890 c3 -5 8 -10 11 -10 2 0 4 5 4 10 0 6 -5 10 -11 10 -5 0 -7
-4 -4 -10z"/>
<path d="M761 1874 c0 -11 3 -14 6 -6 3 7 2 16 -1 19 -3 4 -6 -2 -5 -13z"/>
<path d="M1232 1870 c0 -14 2 -19 5 -12 2 6 2 18 0 25 -3 6 -5 1 -5 -13z"/>
<path d="M1922 1850 c0 -19 2 -27 5 -17 2 9 2 25 0 35 -3 9 -5 1 -5 -18z"/>
<path d="M1022 1834 c-7 -8 -8 -14 -3 -14 10 0 25 19 20 25 -2 1 -10 -3 -17
-11z"/>
<path d="M1081 1834 c0 -11 3 -14 6 -6 3 7 2 16 -1 19 -3 4 -6 -2 -5 -13z"/>
<path d="M1656 1835 c-3 -8 -1 -15 4 -15 6 0 10 7 10 15 0 8 -2 15 -4 15 -2 0
-6 -7 -10 -15z"/>
<path d="M1181 1814 c0 -11 3 -14 6 -6 3 7 2 16 -1 19 -3 4 -6 -2 -5 -13z"/>
<path d="M1535 1820 c-9 -15 14 -40 36 -40 13 0 17 5 12 17 -4 11 -8 12 -11 5
-5 -15 -22 -16 -22 -2 0 6 10 15 23 20 21 8 21 9 -5 9 -15 1 -30 -4 -33 -9z"/>
<path d="M1050 1805 c-7 -9 -29 -15 -51 -15 -22 0 -39 -5 -39 -10 0 -17 72 0
95 21 11 11 17 19 13 19 -3 0 -11 -7 -18 -15z"/>
<path d="M1298 1813 c12 -2 32 -2 45 0 12 2 2 4 -23 4 -25 0 -35 -2 -22 -4z"/>
<path d="M668 1783 c6 -2 18 -2 25 0 6 3 1 5 -13 5 -14 0 -19 -2 -12 -5z"/>
<path d="M1380 1780 c0 -5 7 -7 15 -4 8 4 15 8 15 10 0 2 -7 4 -15 4 -8 0 -15
-4 -15 -10z"/>
<path d="M1875 1780 c3 -5 14 -10 23 -10 15 0 15 2 2 10 -20 13 -33 13 -25 0z"/>
<path d="M1218 1773 c12 -2 32 -2 45 0 12 2 2 4 -23 4 -25 0 -35 -2 -22 -4z"/>
<path d="M1547 1763 c-4 -3 -7 -11 -7 -17 0 -6 5 -5 12 2 6 6 9 14 7 17 -3 3
-9 2 -12 -2z"/>
<path d="M1394 1702 c3 -10 7 -44 9 -75 2 -47 5 -57 20 -57 13 0 17 7 15 26
-2 15 3 29 10 31 6 3 12 -2 12 -11 0 -9 4 -16 10 -16 5 0 7 7 4 15 -4 8 -1 15
5 15 6 0 11 -8 12 -17 0 -16 2 -15 10 2 7 16 8 14 5 -12 -7 -41 0 -43 140 -43
l114 0 -1 28 c0 15 -3 21 -6 14 -2 -6 -9 -10 -14 -6 -12 7 -12 64 1 64 6 0 10
-10 10 -22 0 -12 2 -19 5 -16 3 2 2 26 -1 51 l-7 47 -56 0 c-53 0 -57 -2 -72
-33 -9 -18 -15 -45 -13 -61 4 -35 -9 -65 -20 -47 -4 6 -2 11 4 11 7 0 7 7 -1
22 -12 22 -12 22 -20 3 -7 -17 -8 -16 -8 7 -1 29 -31 97 -43 98 -5 0 -8 -13
-8 -30 0 -16 -4 -30 -9 -30 -5 0 -12 14 -16 30 -5 22 -12 30 -29 30 -19 0 -22
-4 -18 -30 3 -23 0 -30 -12 -30 -11 0 -16 9 -16 30 0 17 -5 30 -11 30 -6 0 -8
-8 -5 -18z m301 -2 c-17 -8 -16 -9 9 -9 24 -1 28 -4 22 -23 -3 -13 -6 -35 -6
-50 0 -23 -4 -26 -36 -25 l-35 1 3 51 c3 50 14 64 48 64 9 0 8 -4 -5 -9z
m-225 -26 c0 -8 -4 -12 -10 -9 -5 3 -10 10 -10 16 0 5 5 9 10 9 6 0 10 -7 10
-16z m80 -66 c0 -19 -2 -20 -10 -8 -13 19 -13 30 0 30 6 0 10 -10 10 -22z m77
-10 c-3 -7 -5 -2 -5 12 0 14 2 19 5 13 2 -7 2 -19 0 -25z"/>
<path d="M1672 1635 c0 -16 2 -22 5 -12 2 9 2 23 0 30 -3 6 -5 -1 -5 -18z"/>
<path d="M1550 1706 c0 -27 12 -46 30 -46 18 0 30 19 30 46 0 9 -11 14 -30 14
-19 0 -30 -5 -30 -14z"/>
<path d="M1450 1578 c0 -3 9 -6 20 -5 11 1 20 5 20 9 0 3 -9 6 -20 5 -11 -1
-20 -5 -20 -9z"/>
<path d="M1190 1550 c19 -13 30 -13 30 0 0 6 -10 10 -22 10 -19 0 -20 -2 -8
-10z"/>
<path d="M1190 1500 c-13 -8 -13 -10 2 -10 9 0 20 5 23 10 8 13 -5 13 -25 0z"/>
<path d="M1665 1490 c-13 -6 -15 -9 -5 -9 8 0 22 4 30 9 18 12 2 12 -25 0z"/>
<path d="M796 1427 c3 -10 9 -15 12 -12 3 3 0 11 -7 18 -10 9 -11 8 -5 -6z"/>
<path d="M1616 1407 c3 -10 9 -15 12 -12 3 3 0 11 -7 18 -10 9 -11 8 -5 -6z"/>
<path d="M1185 1180 c-8 -13 5 -13 25 0 13 8 13 10 -2 10 -9 0 -20 -4 -23 -10z"/>
<path d="M1197 1143 c5 -12 3 -14 -7 -8 -9 5 -11 4 -6 -3 10 -16 23 -15 29 2
3 8 0 17 -8 20 -10 3 -12 0 -8 -11z"/>
<path d="M590 1080 c0 -5 5 -10 11 -10 5 0 7 5 4 10 -3 6 -8 10 -11 10 -2 0
-4 -4 -4 -10z"/>
<path d="M717 1083 c-3 -4 19 -8 49 -8 30 0 54 3 54 6 0 9 -98 11 -103 2z"/>
<path d="M880 1079 c0 -5 5 -7 10 -4 6 3 10 8 10 11 0 2 -4 4 -10 4 -5 0 -10
-5 -10 -11z"/>
<path d="M930 1080 c0 -5 22 -7 53 -3 71 8 72 13 4 13 -31 0 -57 -4 -57 -10z"/>
<path d="M1090 1079 c0 -5 5 -7 10 -4 6 3 10 8 10 11 0 2 -4 4 -10 4 -5 0 -10
-5 -10 -11z"/>
<path d="M1227 1083 c18 -2 50 -2 70 0 21 2 7 4 -32 4 -38 0 -55 -2 -38 -4z"/>
<path d="M1624 1081 c6 -10 63 -8 73 3 3 3 -13 6 -36 6 -23 0 -40 -4 -37 -9z"/>
<path d="M1715 1080 c3 -5 13 -10 21 -10 8 0 14 5 14 10 0 6 -9 10 -21 10 -11
0 -17 -4 -14 -10z"/>
<path d="M1800 1070 c8 -5 22 -9 30 -9 10 0 8 3 -5 9 -27 12 -43 12 -25 0z"/>
<path d="M695 1050 c-16 -7 -17 -9 -3 -9 9 -1 20 4 23 9 7 11 7 11 -20 0z"/>
<path d="M1095 1050 c3 -5 8 -10 11 -10 2 0 4 5 4 10 0 6 -5 10 -11 10 -5 0
-7 -4 -4 -10z"/>
<path d="M1377 1046 c-4 -10 -1 -13 8 -9 8 3 12 9 9 14 -7 12 -11 11 -17 -5z"/>
<path d="M642 995 c0 -16 2 -22 5 -12 2 9 2 23 0 30 -3 6 -5 -1 -5 -18z"/>
<path d="M1223 980 c0 -25 2 -35 4 -22 2 12 2 32 0 45 -2 12 -4 2 -4 -23z"/>
<path d="M1624 900 c0 -69 1 -97 3 -62 2 34 2 90 0 125 -2 34 -3 6 -3 -63z"/>
<path d="M1760 980 c0 -22 5 -40 10 -40 6 0 10 18 10 40 0 22 -4 40 -10 40 -5
0 -10 -18 -10 -40z"/>
<path d="M1491 994 c0 -11 3 -14 6 -6 3 7 2 16 -1 19 -3 4 -6 -2 -5 -13z"/>
<path d="M1862 985 c0 -16 2 -22 5 -12 2 9 2 23 0 30 -3 6 -5 -1 -5 -18z"/>
<path d="M931 984 c0 -11 3 -14 6 -6 3 7 2 16 -1 19 -3 4 -6 -2 -5 -13z"/>
<path d="M1361 984 c0 -11 3 -14 6 -6 3 7 2 16 -1 19 -3 4 -6 -2 -5 -13z"/>
<path d="M930 951 c0 -10 19 -25 25 -20 1 2 -3 10 -11 17 -8 7 -14 8 -14 3z"/>
<path d="M1805 950 c-3 -5 -1 -10 4 -10 6 0 11 5 11 10 0 6 -2 10 -4 10 -3 0
-8 -4 -11 -10z"/>
<path d="M675 934 c46 -7 125 -8 125 -1 0 4 -33 6 -72 6 -40 -1 -64 -3 -53 -5z"/>
<path d="M1836 925 c-11 -8 -15 -15 -9 -15 6 0 16 7 23 15 16 19 11 19 -14 0z"/>
<path d="M1698 923 c6 -2 18 -2 25 0 6 3 1 5 -13 5 -14 0 -19 -2 -12 -5z"/>
<path d="M780 900 c-13 -8 -12 -10 3 -10 9 0 17 5 17 10 0 12 -1 12 -20 0z"/>
<path d="M1060 899 c0 -5 5 -7 10 -4 6 3 10 8 10 11 0 2 -4 4 -10 4 -5 0 -10
-5 -10 -11z"/>
<path d="M728 893 c6 -2 18 -2 25 0 6 3 1 5 -13 5 -14 0 -19 -2 -12 -5z"/>
<path d="M1248 893 c6 -2 18 -2 25 0 6 3 1 5 -13 5 -14 0 -19 -2 -12 -5z"/>
<path d="M1300 870 c6 -11 12 -20 14 -20 2 0 2 9 -1 20 -3 11 -9 20 -15 20 -5
0 -4 -9 2 -20z"/>
<path d="M1210 840 c0 -25 5 -52 10 -60 7 -11 10 -3 10 30 0 25 -5 52 -10 60
-7 11 -10 3 -10 -30z"/>
<path d="M1800 872 c0 -5 6 -14 13 -20 7 -6 24 -34 37 -62 13 -27 25 -48 27
-46 6 6 -46 106 -63 124 -8 7 -14 9 -14 4z"/>
<path d="M1493 820 c0 -25 2 -35 4 -22 2 12 2 32 0 45 -2 12 -4 2 -4 -23z"/>
<path d="M1673 815 c0 -27 2 -38 4 -22 2 15 2 37 0 50 -2 12 -4 0 -4 -28z"/>
<path d="M1750 854 c0 -6 5 -24 10 -41 6 -16 15 -59 19 -94 l8 -64 2 61 c1 42
-5 76 -19 105 -11 24 -20 39 -20 33z"/>
<path d="M1331 820 c14 -31 19 -36 19 -24 0 6 -7 19 -16 30 -14 18 -14 18 -3
-6z"/>
<path d="M1090 780 c0 -5 5 -10 11 -10 5 0 7 5 4 10 -3 6 -8 10 -11 10 -2 0
-4 -4 -4 -10z"/>
<path d="M590 766 c0 -9 5 -16 10 -16 6 0 10 4 10 9 0 6 -4 13 -10 16 -5 3
-10 -1 -10 -9z"/>
<path d="M1530 773 c0 -6 -10 -13 -22 -15 -21 -3 -20 -4 5 -9 31 -7 40 0 26
21 -5 9 -9 10 -9 3z"/>
<path d="M873 760 c3 -12 25 -16 107 -18 57 -1 101 0 97 4 -3 4 -48 6 -98 5
-67 -2 -95 1 -101 11 -8 10 -9 10 -5 -2z"/>
<path d="M1625 760 c-3 -5 1 -10 10 -10 9 0 13 5 10 10 -3 6 -8 10 -10 10 -2
0 -7 -4 -10 -10z"/>
<path d="M1189 749 c14 -6 28 -6 33 -1 5 5 -5 9 -24 10 -31 0 -31 -1 -9 -9z"/>
<path d="M1360 750 c0 -5 5 -10 10 -10 6 0 10 5 10 10 0 6 -4 10 -10 10 -5 0
-10 -4 -10 -10z"/>
<path d="M1400 750 c0 -5 7 -10 16 -10 8 0 12 5 9 10 -3 6 -10 10 -16 10 -5 0
-9 -4 -9 -10z"/>
<path d="M1665 750 c3 -5 8 -10 11 -10 2 0 4 5 4 10 0 6 -5 10 -11 10 -5 0 -7
-4 -4 -10z"/>
<path d="M1830 750 c20 -13 33 -13 25 0 -3 6 -14 10 -23 10 -15 0 -15 -2 -2
-10z"/>
<path d="M615 742 c-8 -8 -6 -112 3 -110 4 0 14 -2 24 -6 9 -4 29 -6 45 -3 23
3 22 4 -10 6 l-38 1 7 58 c5 50 4 59 -10 59 -9 0 -18 -3 -21 -5z"/>
<path d="M353 623 c20 -2 54 -2 75 0 20 2 3 4 -38 4 -41 0 -58 -2 -37 -4z"/>
<path d="M508 623 c12 -2 32 -2 45 0 12 2 2 4 -23 4 -25 0 -35 -2 -22 -4z"/>
<path d="M983 623 c148 -2 386 -2 530 0 144 1 24 2 -268 2 -291 0 -409 -1
-262 -2z"/>
<path d="M1808 623 c7 -3 16 -2 19 1 4 3 -2 6 -13 5 -11 0 -14 -3 -6 -6z"/>
<path d="M1898 623 c34 -2 90 -2 125 0 34 2 6 3 -63 3 -69 0 -97 -1 -62 -3z"/>
<path d="M330 537 c0 -3 12 -12 26 -22 15 -9 23 -12 20 -6 -7 11 -46 35 -46
28z"/>
<path d="M753 490 c0 -30 2 -43 4 -27 2 15 2 39 0 55 -2 15 -4 2 -4 -28z"/>
<path d="M910 530 c8 -5 22 -9 30 -9 10 0 8 3 -5 9 -27 12 -43 12 -25 0z"/>
<path d="M1200 530 c8 -5 22 -9 30 -9 10 0 8 3 -5 9 -27 12 -43 12 -25 0z"/>
<path d="M1302 517 c-29 -31 -28 -107 1 -107 7 0 7 4 -1 12 -23 23 -14 75 16
97 15 11 22 21 16 21 -6 0 -20 -10 -32 -23z"/>
<path d="M1370 532 c0 -4 10 -13 23 -21 22 -14 22 -14 3 8 -20 22 -26 25 -26
13z"/>
<path d="M1484 518 l-19 -23 25 20 c14 11 27 21 29 22 2 2 0 3 -6 3 -5 0 -18
-10 -29 -22z"/>
<path d="M1540 536 c0 -2 7 -7 16 -10 8 -3 12 -2 9 4 -6 10 -25 14 -25 6z"/>
<path d="M1654 526 c-10 -8 -17 -17 -14 -19 3 -3 16 3 29 14 27 22 15 26 -15
5z"/>
<path d="M1921 537 c2 -1 13 -9 24 -17 19 -14 19 -14 6 3 -7 9 -18 17 -24 17
-6 0 -8 -1 -6 -3z"/>
<path d="M1970 531 c0 -6 4 -13 10 -16 6 -3 7 1 4 9 -7 18 -14 21 -14 7z"/>
<path d="M1120 500 c-18 -42 -9 -45 11 -4 9 19 13 34 9 34 -4 0 -13 -14 -20
-30z"/>
<path d="M447 493 c-6 -16 -16 -32 -22 -36 -6 -5 -5 -7 3 -5 13 3 47 68 36 68
-2 0 -10 -12 -17 -27z"/>
<path d="M571 515 c0 -5 8 -26 19 -45 11 -19 19 -30 19 -25 0 6 -8 26 -19 45
-11 19 -19 31 -19 25z"/>
<path d="M621 504 c0 -11 3 -14 6 -6 3 7 2 16 -1 19 -3 4 -6 -2 -5 -13z"/>
<path d="M1800 501 c0 -6 4 -13 10 -16 6 -3 7 1 4 9 -7 18 -14 21 -14 7z"/>
<path d="M2022 490 c0 -14 2 -19 5 -12 2 6 2 18 0 25 -3 6 -5 1 -5 -13z"/>
<path d="M307 493 c-4 -3 -7 -17 -7 -30 0 -26 21 -31 40 -8 18 22 -13 58 -33
38z m23 -28 c0 -8 -4 -15 -10 -15 -5 0 -10 7 -10 15 0 8 5 15 10 15 6 0 10 -7
10 -15z"/>
<path d="M846 487 c3 -10 9 -15 12 -12 3 3 0 11 -7 18 -10 9 -11 8 -5 -6z"/>
<path d="M880 491 c0 -5 10 -12 23 -15 22 -6 22 -7 3 -21 -18 -13 -18 -15 -3
-15 23 0 33 26 17 45 -14 16 -40 20 -40 6z"/>
<path d="M1162 488 c-7 -7 -12 -17 -12 -24 0 -18 24 -34 39 -25 9 6 7 10 -9
14 -31 8 -15 27 23 28 27 0 29 2 12 9 -28 12 -39 12 -53 -2z"/>
<path d="M1327 494 c-12 -12 -8 -41 8 -54 12 -10 19 -10 27 -2 15 15 21 52 9
52 -5 0 -16 2 -23 5 -8 3 -17 2 -21 -1z m39 -32 c-4 -24 -23 -26 -29 -3 -6 23
0 32 18 25 7 -3 12 -13 11 -22z"/>
<path d="M1507 493 c-12 -11 -7 -40 8 -53 12 -10 19 -10 27 -2 9 9 7 12 -8 12
-12 0 -21 7 -21 15 0 10 11 15 36 16 33 1 34 2 11 9 -33 11 -45 11 -53 3z"/>
<path d="M1682 488 c-16 -16 -15 -26 4 -45 11 -12 18 -13 27 -4 8 8 7 11 -5
11 -9 0 -18 7 -22 15 -4 10 1 15 14 15 11 0 20 5 20 10 0 14 -23 13 -38 -2z"/>
<path d="M1970 493 c0 -5 5 -15 10 -23 8 -12 10 -11 10 8 0 12 -4 22 -10 22
-5 0 -10 -3 -10 -7z"/>
<path d="M2070 486 c0 -8 4 -17 9 -20 5 -4 7 3 4 14 -6 23 -13 26 -13 6z"/>
<path d="M2114 491 c8 -12 46 -21 46 -11 0 8 -24 20 -41 20 -6 0 -8 -4 -5 -9z"/>
<path d="M476 475 c-3 -9 0 -15 9 -15 9 0 12 6 9 15 -4 8 -7 15 -9 15 -2 0 -5
-7 -9 -15z"/>
<path d="M637 483 c-4 -3 -7 -11 -7 -17 0 -6 5 -5 12 2 6 6 9 14 7 17 -3 3 -9
2 -12 -2z"/>
<path d="M961 474 c0 -11 3 -14 6 -6 3 7 2 16 -1 19 -3 4 -6 -2 -5 -13z"/>
<path d="M1413 466 c0 -15 -9 -36 -19 -47 -15 -17 -15 -19 -2 -14 20 8 39 57
28 75 -5 7 -7 2 -7 -14z"/>
<path d="M1620 470 c0 -11 2 -20 4 -20 2 0 6 9 9 20 3 11 1 20 -4 20 -5 0 -9
-9 -9 -20z"/>
<path d="M261 464 c0 -11 3 -14 6 -6 3 7 2 16 -1 19 -3 4 -6 -2 -5 -13z"/>
<path d="M382 460 c0 -14 2 -19 5 -12 2 6 2 18 0 25 -3 6 -5 1 -5 -13z"/>
<path d="M676 463 c-6 -14 -5 -15 5 -6 7 7 10 15 7 18 -3 3 -9 -2 -12 -12z"/>
<path d="M525 460 c3 -5 8 -10 11 -10 2 0 4 5 4 10 0 6 -5 10 -11 10 -5 0 -7
-4 -4 -10z"/>
<path d="M1236 461 c-4 -7 -5 -15 -2 -18 9 -9 19 4 14 18 -4 11 -6 11 -12 0z"/>
<path d="M1585 455 c-3 -8 -7 -22 -10 -31 -3 -8 -1 -13 4 -10 5 3 11 17 13 31
6 27 0 34 -7 10z"/>
<path d="M1751 449 c0 -15 -8 -30 -17 -33 -26 -10 -69 -7 -84 7 -12 10 -12 9
-1 -5 17 -22 83 -24 101 -4 6 8 10 25 7 38 -4 21 -4 21 -6 -3z"/>
<path d="M1940 456 c0 -18 30 -49 39 -40 3 4 0 9 -6 11 -7 3 -13 11 -13 18 0
8 -4 17 -10 20 -5 3 -10 -1 -10 -9z"/>
<path d="M792 435 c0 -16 2 -22 5 -12 2 9 2 23 0 30 -3 6 -5 -1 -5 -18z"/>
<path d="M2021 444 c0 -11 3 -14 6 -6 3 7 2 16 -1 19 -3 4 -6 -2 -5 -13z"/>
<path d="M2113 443 c9 -9 20 -13 24 -9 4 4 1 11 -7 16 -25 16 -35 11 -17 -7z"/>
<path d="M1460 444 c0 -13 18 -39 24 -34 2 3 -2 14 -10 24 -8 11 -14 16 -14
10z"/>
<path d="M413 425 c-3 -9 -3 -18 -1 -21 3 -3 8 4 11 16 6 23 -1 27 -10 5z"/>
<path d="M942 424 c-7 -8 -8 -14 -3 -14 10 0 25 19 20 25 -2 1 -10 -3 -17 -11z"/>
<path d="M475 423 c11 -3 29 -12 39 -22 18 -15 18 -15 5 7 -9 14 -23 22 -39
21 -21 -1 -21 -2 -5 -6z"/>
<path d="M334 404 c-18 -14 -18 -14 6 -3 31 14 36 19 24 19 -6 0 -19 -7 -30
-16z"/>
<path d="M1215 410 c-3 -5 -1 -10 4 -10 6 0 11 5 11 10 0 6 -2 10 -4 10 -3 0
-8 -4 -11 -10z"/>
<path d="M850 398 c0 -4 14 -8 32 -8 17 0 28 3 24 8 -10 10 -56 10 -56 0z"/>
<path d="M1150 400 c8 -5 20 -10 25 -10 6 0 3 5 -5 10 -8 5 -19 10 -25 10 -5
0 -3 -5 5 -10z"/>
<path d="M1328 403 c6 -2 18 -2 25 0 6 3 1 5 -13 5 -14 0 -19 -2 -12 -5z"/>
<path d="M1516 402 c-2 -4 7 -8 20 -8 13 -1 24 1 24 5 0 9 -38 12 -44 3z"/>
<path d="M1810 400 c0 -6 7 -10 15 -10 8 0 15 2 15 4 0 2 -7 6 -15 10 -8 3
-15 1 -15 -4z"/>
<path d="M2110 406 c0 -2 7 -6 15 -10 8 -3 15 -1 15 4 0 6 -7 10 -15 10 -8 0
-15 -2 -15 -4z"/>
<path d="M305 289 c-4 -17 -4 -33 -1 -36 3 -4 6 -1 6 6 0 8 7 10 19 6 18 -5
19 -3 8 25 -14 38 -24 38 -32 -1z"/>
<path d="M1140 310 c0 -5 -7 -10 -15 -10 -8 0 -15 -9 -15 -20 0 -11 7 -20 15
-20 8 0 15 6 15 13 0 8 3 9 8 1 4 -6 17 -13 29 -16 18 -5 20 -3 14 15 -4 12
-13 23 -19 25 -8 2 -10 -3 -5 -14 6 -16 5 -17 -9 -4 -8 8 -13 21 -11 27 3 7 2
13 -1 13 -3 0 -6 -4 -6 -10z"/>
<path d="M1403 306 c4 -10 7 -25 8 -34 0 -14 2 -13 9 3 7 17 9 17 9 3 1 -10 5
-18 11 -18 5 0 14 8 20 18 11 16 11 16 6 -1 -7 -22 22 -20 42 3 12 13 13 13 8
-2 -3 -10 -1 -18 4 -18 5 0 11 8 13 18 4 14 5 14 6 -3 1 -17 3 -18 11 -5 6 10
10 11 10 3 0 -7 7 -13 15 -13 8 0 15 9 15 20 0 18 -6 19 -75 17 -55 -2 -82 1
-97 12 -20 13 -21 13 -15 -3z"/>
<path d="M354 298 c-5 -7 -2 -8 6 -3 9 5 10 2 6 -13 -4 -11 -2 -23 4 -27 6 -3
10 4 11 17 0 22 1 22 8 3 8 -19 9 -18 13 5 l5 25 2 -25 c1 -20 3 -22 11 -10 6
10 10 11 10 3 0 -7 7 -13 16 -13 10 0 14 6 10 15 -3 8 -1 15 4 15 5 0 11 -8
13 -17 3 -12 5 -8 6 9 1 25 -1 26 -28 18 -16 -4 -32 -6 -35 -2 -11 10 -56 11
-62 0z"/>
<path d="M653 303 c-18 -7 -16 -43 2 -43 8 0 15 5 15 12 0 9 3 9 12 0 17 -17
26 -15 37 6 8 14 6 18 -10 19 -11 1 -17 -2 -14 -7 3 -6 -1 -7 -9 -4 -9 3 -13
10 -10 15 6 10 -3 11 -23 2z"/>
<path d="M1023 303 c-7 -3 -13 -13 -13 -23 0 -15 7 -18 36 -17 39 3 68 32 34
34 -11 1 -23 -3 -27 -9 -4 -8 -8 -7 -12 4 -3 8 -12 13 -18 11z"/>
<path d="M1927 293 c5 -12 3 -14 -8 -7 -8 5 -33 10 -56 11 -37 3 -43 0 -43
-16 0 -30 19 -35 29 -9 6 13 10 17 10 10 1 -7 7 -20 15 -27 17 -17 37 0 28 24
-5 14 -3 14 12 -1 23 -24 26 -23 26 7 0 14 -4 25 -10 25 -5 0 -6 -7 -3 -17z
m-90 -25 c-3 -8 -6 -5 -6 6 -1 11 2 17 5 13 3 -3 4 -12 1 -19z"/>
<path d="M1968 303 c-22 -5 -24 -43 -3 -43 8 0 15 6 15 13 0 9 3 8 9 -2 6 -9
20 -12 40 -9 17 2 32 0 34 -6 2 -6 6 1 9 16 4 24 2 26 -23 26 -16 -1 -26 -4
-24 -8 3 -5 -2 -11 -10 -14 -11 -4 -15 0 -13 11 3 18 -8 23 -34 16z"/>
<path d="M496 291 c-8 -13 4 -42 15 -35 12 7 12 44 0 44 -6 0 -12 -4 -15 -9z"/>
<path d="M531 278 c1 -17 2 -19 6 -5 5 21 23 23 23 2 0 -10 10 -15 31 -15 24
0 30 4 27 17 -2 10 -11 19 -21 21 -13 3 -15 -1 -10 -15 6 -17 5 -17 -14 0 -27
23 -43 21 -42 -5z"/>
<path d="M740 290 c0 -5 4 -10 9 -10 6 0 13 5 16 10 3 6 -1 10 -9 10 -9 0 -16
-4 -16 -10z"/>
<path d="M781 294 c-1 -6 -11 -15 -23 -21 -19 -8 -20 -10 -5 -16 9 -3 17 -2
17 3 0 5 7 7 16 3 9 -3 20 0 25 8 6 10 9 8 9 -9 0 -22 1 -22 16 -7 10 9 24 13
38 10 17 -5 18 -4 6 4 -13 9 -13 11 3 11 9 0 17 -4 17 -10 0 -5 5 -10 10 -10
6 0 10 7 10 15 0 17 25 20 35 5 3 -6 -1 -7 -9 -4 -9 4 -16 1 -16 -6 0 -8 9
-11 25 -8 17 4 29 0 35 -11 7 -12 9 -8 7 15 l-2 31 -97 0 c-82 -1 -98 -4 -99
-16 0 -12 -3 -10 -9 4 -5 11 -9 15 -9 9z m64 -14 c3 -5 1 -10 -4 -10 -6 0 -11
5 -11 10 0 6 2 10 4 10 3 0 8 -4 11 -10z"/>
<path d="M1211 283 c-1 -28 35 -32 56 -5 13 15 14 15 9 0 -4 -14 3 -16 50 -16
38 1 58 -3 65 -13 11 -18 11 -7 0 24 -8 21 -16 25 -50 24 -30 -1 -41 -5 -41
-16 0 -14 -1 -14 -10 -1 -14 22 -60 23 -61 2 0 -14 -2 -13 -9 3 -8 19 -9 19
-9 -2z m139 -3 c0 -5 -4 -10 -10 -10 -5 0 -10 5 -10 10 0 6 5 10 10 10 6 0 10
-4 10 -10z"/>
<path d="M1601 278 c0 -13 3 -17 6 -9 5 11 7 11 15 0 8 -12 10 -12 15 0 5 11
7 11 14 0 6 -10 9 -8 9 9 0 18 -6 22 -30 22 -25 0 -30 -4 -29 -22z"/>
<path d="M1680 281 c0 -15 6 -21 21 -21 25 0 22 33 -4 38 -12 2 -17 -3 -17
-17z"/>
<path d="M1740 279 c0 -15 6 -18 32 -16 48 4 51 35 4 35 -29 0 -36 -4 -36 -19z
m30 1 c0 -5 -4 -10 -10 -10 -5 0 -10 5 -10 10 0 6 5 10 10 10 6 0 10 -4 10
-10z"/>
<path d="M2104 289 c-10 -17 13 -36 27 -22 12 12 4 33 -11 33 -5 0 -12 -5 -16
-11z m26 -9 c0 -5 -4 -10 -10 -10 -5 0 -10 5 -10 10 0 6 5 10 10 10 6 0 10 -4
10 -10z"/>
<path d="M415 240 c-3 -5 -1 -10 4 -10 6 0 11 5 11 10 0 6 -2 10 -4 10 -3 0
-8 -4 -11 -10z"/>
<path d="M320 236 c0 -2 8 -10 18 -17 15 -13 16 -12 3 4 -13 16 -21 21 -21 13z"/>
<path d="M451 224 c0 -11 3 -14 6 -6 3 7 2 16 -1 19 -3 4 -6 -2 -5 -13z"/>
<path d="M780 226 c0 -4 4 -15 9 -25 8 -14 6 -17 -12 -17 -24 1 -31 -24 -8
-32 8 -3 11 0 7 7 -11 16 10 13 24 -4 16 -19 30 -10 29 18 -1 20 -2 20 -9 -3
l-8 -25 -1 25 c-1 22 -31 76 -31 56z"/>
<path d="M1046 213 c-6 -14 -5 -15 5 -6 7 7 10 15 7 18 -3 3 -9 -2 -12 -12z"/>
<path d="M1537 201 c-19 -33 -22 -55 -6 -45 6 3 15 1 19 -6 5 -9 13 -6 29 11
20 21 21 22 21 3 1 -19 1 -19 15 0 15 20 15 20 16 0 0 -18 1 -18 9 1 l9 20 1
-20 1 -20 9 20 c6 14 9 16 10 5 2 -8 2 -18 1 -22 0 -5 4 -8 9 -8 5 0 10 4 10
9 0 5 2 16 5 24 5 11 -8 14 -60 16 -57 2 -65 0 -66 -16 0 -16 -1 -16 -9 2 -12
27 -12 37 0 30 6 -3 7 1 4 9 -8 20 -7 21 -27 -13z"/>
<path d="M1815 219 c-4 -6 -5 -12 -2 -15 2 -3 7 2 10 11 7 17 1 20 -8 4z"/>
<path d="M956 203 c10 -7 14 -14 8 -14 -5 -1 -16 -2 -24 -3 -28 -2 -16 -30 15
-34 76 -9 140 -1 140 18 0 10 -14 15 -47 17 -44 3 -48 1 -49 -19 0 -14 -2 -17
-6 -8 -2 8 -7 22 -10 30 -4 8 -6 17 -5 20 0 3 -8 6 -19 6 -19 0 -19 -1 -3 -13z
m-6 -33 c0 -5 -4 -10 -10 -10 -5 0 -10 5 -10 10 0 6 5 10 10 10 6 0 10 -4 10
-10z m67 -12 c-3 -8 -6 -5 -6 6 -1 11 2 17 5 13 3 -3 4 -12 1 -19z m73 18 c0
-3 -4 -8 -10 -11 -5 -3 -10 -1 -10 4 0 6 5 11 10 11 6 0 10 -2 10 -4z"/>
<path d="M1405 190 c-9 -17 -23 -30 -33 -29 -10 0 -12 3 -4 6 6 2 12 9 12 14
0 6 -4 7 -10 4 -5 -3 -10 -2 -10 4 0 5 8 12 18 14 13 4 12 5 -5 6 -14 1 -23
-6 -25 -19 -2 -15 -7 -17 -18 -10 -13 9 -13 11 0 20 13 8 13 10 -2 10 -25 0
-33 -21 -14 -36 16 -12 16 -13 -1 -16 -10 -3 14 -5 52 -4 39 0 85 -4 103 -8
21 -5 32 -4 32 3 0 6 -9 11 -20 11 -15 0 -20 7 -20 25 0 34 -20 32 -21 -2 0
-28 0 -28 -10 -5 -5 13 -7 28 -3 33 3 5 3 9 0 9 -3 0 -12 -13 -21 -30z"/>
<path d="M322 180 c0 -19 2 -27 5 -17 2 9 2 25 0 35 -3 9 -5 1 -5 -18z"/>
<path d="M668 196 c-10 -7 -18 -18 -18 -25 0 -16 42 -30 61 -20 9 4 19 6 22 3
3 -3 3 4 0 16 -4 15 -11 20 -24 17 -10 -3 -19 1 -21 8 -2 11 -6 11 -20 1z m12
-20 c0 -3 -4 -8 -10 -11 -5 -3 -10 -1 -10 4 0 6 5 11 10 11 6 0 10 -2 10 -4z"/>
<path d="M1119 196 c6 -7 9 -20 6 -28 -4 -9 0 -18 9 -21 11 -4 13 -1 9 10 -5
12 -3 14 8 7 27 -17 59 -16 59 3 0 15 2 15 15 -3 8 -11 15 -14 15 -6 0 6 5 12
11 12 6 0 9 -7 5 -15 -3 -8 -2 -15 3 -15 14 0 23 52 11 64 -8 8 -10 7 -5 -5 4
-11 0 -15 -14 -14 -11 1 -23 4 -27 7 -8 8 -37 -2 -46 -16 -4 -6 -8 0 -9 14 0
23 -1 23 -9 5 -7 -18 -8 -19 -15 -2 -4 9 -14 17 -22 17 -12 0 -13 -3 -4 -14z"/>
<path d="M1727 204 c-4 -4 -7 -18 -7 -32 0 -20 3 -22 14 -13 11 9 15 9 20 -1
3 -7 4 0 3 16 -2 29 -17 43 -30 30z"/>
<path d="M2049 196 c6 -7 9 -21 5 -30 -3 -9 -2 -16 4 -16 5 0 12 14 14 30 4
25 1 30 -15 30 -15 0 -17 -3 -8 -14z"/>
<path d="M2092 193 c-17 -30 -15 -39 8 -39 11 0 20 4 20 9 0 5 6 5 13 0 6 -6
21 -10 32 -10 24 0 59 32 51 46 -9 14 -79 8 -84 -7 -6 -18 -20 -15 -24 6 -3
15 -5 14 -16 -5z m72 -9 c22 -8 20 -19 -4 -21 -11 -1 -20 4 -20 13 0 16 2 16
24 8z"/>
<path d="M220 176 c0 -31 30 -44 37 -16 6 23 23 27 23 5 0 -8 7 -15 15 -15 8
0 15 9 15 20 0 31 -57 28 -63 -2 -4 -20 -4 -19 -6 5 -1 33 -21 36 -21 3z"/>
<path d="M433 193 c-15 -5 -17 -39 -4 -47 5 -4 7 4 4 16 -4 22 -4 23 11 4 16
-20 16 -20 17 0 0 17 1 17 9 -3 12 -29 52 -20 48 11 -4 27 -21 24 -29 -6 l-6
-23 -4 24 c-4 24 -21 33 -46 24z"/>
<path d="M570 177 c0 -15 4 -27 8 -27 10 0 9 36 -1 46 -4 4 -7 -5 -7 -19z"/>
<path d="M596 184 c-9 -23 10 -42 26 -26 10 9 9 16 -4 28 -14 14 -16 14 -22
-2z"/>
<path d="M840 175 c0 -14 4 -25 9 -25 4 0 6 11 3 25 -2 14 -6 25 -8 25 -2 0
-4 -11 -4 -25z"/>
<path d="M1776 193 c-12 -12 -6 -43 9 -43 8 0 15 9 15 19 0 21 -13 34 -24 24z"/>
<path d="M1940 192 c0 -5 -29 -7 -65 -6 -62 3 -65 3 -64 -19 1 -20 2 -20 7 -2
4 19 5 19 11 1 7 -17 8 -17 23 -2 21 20 35 21 18 1 -15 -18 -5 -34 11 -18 6 6
18 9 25 6 10 -4 12 0 8 11 -8 20 0 21 19 1 13 -12 15 -12 20 5 3 11 1 23 -4
26 -5 3 -9 1 -9 -4z"/>
<path d="M1984 186 c-8 -9 -7 -15 2 -24 19 -18 34 -15 34 7 0 23 -21 33 -36
17z"/>
<path d="M341 168 c0 -22 1 -22 8 -3 l8 20 5 -20 c5 -18 6 -18 7 3 1 13 -5 22
-14 22 -9 0 -15 -9 -14 -22z"/>
<path d="M387 183 c-13 -12 -7 -33 8 -33 8 0 15 9 15 20 0 20 -11 26 -23 13z"/>
<path d="M531 168 c0 -22 1 -22 8 -3 l8 20 5 -20 c5 -18 6 -18 7 3 1 13 -5 22
-14 22 -9 0 -15 -9 -14 -22z"/>
<path d="M865 180 c-7 -12 2 -30 16 -30 6 0 7 5 4 10 -3 6 -1 10 5 10 6 0 8 5
5 10 -3 6 -10 10 -15 10 -5 0 -12 -4 -15 -10z"/>
</g>
</svg>
