<?xml version="1.0" standalone="no"?>
<!DOCTYPE svg PUBLIC "-//W3C//DTD SVG 20010904//EN"
 "http://www.w3.org/TR/2001/REC-SVG-20010904/DTD/svg10.dtd">
<svg version="1.0" xmlns="http://www.w3.org/2000/svg"
 width="215.000000pt" height="235.000000pt" viewBox="0 0 215.000000 235.000000"
 preserveAspectRatio="xMidYMid meet">

<g transform="translate(0.000000,235.000000) scale(0.100000,-0.100000)"
fill="#000000" stroke="none">
<path d="M0 1175 l0 -1065 1075 0 1075 0 0 634 c0 499 -3 635 -12 638 -10 4
-13 82 -13 348 0 266 3 344 13 347 8 3 12 29 12 84 l0 79 -1075 0 -1075 0 0
-1065z m800 939 c0 -11 -6 -14 -22 -9 -20 6 -19 3 7 -18 26 -22 28 -27 16 -41
-17 -20 -62 -18 -69 3 -3 10 1 12 17 8 11 -3 23 -2 26 3 3 4 -6 11 -20 14 -24
6 -34 34 -18 49 14 14 63 7 63 -9z m180 6 c0 -5 -11 -10 -25 -10 -14 0 -25 -4
-25 -10 0 -5 11 -10 25 -10 14 0 25 -4 25 -10 0 -5 -12 -10 -26 -10 -14 0 -23
-4 -19 -10 3 -5 15 -10 26 -10 10 0 19 -5 19 -11 0 -6 -16 -9 -37 -7 -35 3
-38 6 -41 36 -2 19 -1 40 2 48 6 16 76 20 76 4z m158 -37 c-3 -43 -5 -48 -27
-48 -13 0 -26 6 -28 13 -3 6 2 12 11 12 10 0 16 9 16 25 0 16 -6 25 -15 25 -8
0 -15 5 -15 10 0 6 14 10 31 10 30 0 30 -1 27 -47z m182 1 c24 -56 24 -54 5
-54 -8 0 -15 5 -15 10 0 14 -47 13 -52 -1 -2 -7 -9 -10 -15 -8 -16 5 25 99 43
99 7 0 22 -21 34 -46z m-464 -123 c25 -12 50 -33 65 -57 23 -38 24 -46 24
-224 0 -176 -1 -187 -23 -226 -32 -55 -74 -78 -142 -79 -72 0 -118 26 -148 85
-22 43 -23 53 -20 232 l3 186 31 38 c50 62 133 80 210 45z m-406 -36 l0 -45
-60 0 -60 0 0 -75 0 -75 46 0 45 0 -3 -42 c-3 -43 -3 -43 -45 -46 l-43 -3 0
-124 0 -123 -50 -4 c-28 -1 -55 -1 -60 0 -6 2 -10 110 -10 293 l0 289 120 0
120 0 0 -45z m926 24 c70 -34 91 -118 81 -336 -8 -203 -41 -230 -269 -224
l-48 1 0 291 0 292 104 -5 c57 -3 116 -12 132 -19z m486 -64 c10 -44 38 -172
62 -285 25 -112 43 -206 41 -208 -3 -4 -65 -5 -102 -3 -7 1 -17 28 -24 62
l-12 60 -36 -3 c-36 -3 -36 -4 -45 -60 -10 -63 -4 -58 -87 -62 -17 0 -34 4
-36 11 -4 10 95 492 113 556 5 15 15 17 57 15 l52 -3 17 -80z m-580 -534 c-12
-8 -12 -43 1 -58 7 -10 4 -13 -12 -13 -18 0 -21 6 -21 38 0 44 6 53 27 45 8
-3 10 -9 5 -12z m-477 -1 c3 -5 1 -10 -4 -10 -6 0 -11 -19 -11 -42 0 -52 -15
-39 -23 20 -4 36 -3 42 13 42 11 0 22 -4 25 -10z m1002 -42 c3 -35 1 -38 -22
-38 -23 0 -25 4 -25 41 0 36 2 40 22 37 18 -2 23 -10 25 -40z m-1514 4 c-14
-9 -14 -51 1 -70 8 -11 5 -13 -14 -10 -22 3 -25 9 -28 46 -3 40 -2 42 25 42
17 0 23 -3 16 -8z m990 -114 c-6 -43 -10 -55 -17 -47 -2 2 -6 23 -9 47 -4 36
-2 42 13 42 15 0 17 -6 13 -42z m-493 -29 c0 -31 -4 -48 -10 -44 -5 3 -10 26
-10 51 0 24 5 44 10 44 6 0 10 -23 10 -51z m992 14 l1 -38 4 38 c6 50 23 47
23 -4 0 -36 -2 -40 -22 -37 -19 2 -24 10 -26 41 -2 21 1 37 7 37 6 0 12 -17
13 -37z m-1502 -42 c0 -22 5 -42 13 -44 6 -3 2 -6 -10 -6 -21 -1 -23 4 -23 44
0 25 5 45 10 45 6 0 10 -18 10 -39z m1004 -43 c-12 -20 -12 -52 0 -60 6 -5 2
-8 -11 -8 -20 0 -23 5 -23 40 0 34 3 40 21 40 13 0 18 -4 13 -12z m497 -20 c0
-10 2 -10 6 0 10 26 23 10 23 -28 0 -22 -4 -40 -10 -40 -5 0 -10 6 -11 13 0
10 -2 10 -6 0 -10 -27 -23 -11 -23 27 0 22 5 40 10 40 6 0 10 -6 11 -12z
m-1001 -20 l9 -23 0 23 c1 36 25 21 29 -17 2 -18 0 -40 -3 -49 -6 -15 -8 -15
-15 3 -6 14 -9 15 -9 5 -1 -9 -10 -16 -21 -16 -17 0 -20 7 -20 48 0 51 15 63
30 26z m-500 -63 c0 -25 -4 -45 -10 -45 -5 0 -10 20 -10 45 0 25 5 45 10 45 6
0 10 -20 10 -45z m1008 -55 c0 -32 -4 -40 -19 -40 -15 0 -19 8 -19 40 0 33 3
40 19 40 16 0 20 -7 19 -40z m520 -17 c-2 -31 -7 -39 -25 -41 -21 -3 -23 1
-23 37 0 37 2 41 26 41 23 0 25 -3 22 -37z m-1018 -33 c0 -27 -4 -50 -10 -50
-11 0 -14 83 -3 93 12 12 13 8 13 -43z m-503 -26 c-9 -29 -8 -37 4 -45 10 -6
7 -9 -13 -9 -32 0 -32 -1 -18 36 7 19 7 30 -1 40 -9 11 -7 14 14 14 24 0 25
-1 14 -36z m1013 -55 c0 -38 -1 -39 -30 -37 -28 2 -30 5 -30 40 0 21 5 38 10
38 6 0 10 -6 10 -12 0 -7 5 -5 11 5 15 26 29 11 29 -34z m500 12 c0 -5 3 -22
6 -38 5 -28 4 -30 -21 -30 -19 0 -25 4 -21 14 3 8 6 26 6 39 0 15 6 24 15 24
8 0 15 -4 15 -9z m-1006 -27 c9 -3 16 -11 16 -16 0 -6 -7 -8 -15 -4 -20 7 -19
-3 1 -25 9 -10 14 -26 10 -34 -7 -19 -37 -16 -44 4 -3 10 0 12 12 8 9 -4 16
-2 16 2 0 5 -7 11 -15 15 -15 5 -21 37 -8 49 8 8 8 8 27 1z m486 -109 c0 -25
-4 -45 -10 -45 -5 0 -10 20 -10 45 0 25 5 45 10 45 6 0 10 -20 10 -45z m501 3
c0 -10 2 -10 6 0 10 26 23 10 23 -28 0 -22 -4 -40 -10 -40 -5 0 -10 6 -11 13
0 10 -2 10 -6 0 -10 -27 -23 -11 -23 27 0 22 5 40 10 40 6 0 10 -6 11 -12z
m-979 -46 c-7 -2 -12 -21 -12 -43 0 -54 -17 -49 -22 6 -2 33 1 45 12 48 19 4
38 -5 22 -11z m481 -50 c3 7 6 -6 6 -29 1 -24 -3 -43 -9 -43 -5 0 -10 8 -11
18 0 14 -2 14 -9 -3 -7 -17 -9 -18 -10 -2 -2 19 -3 54 -1 63 1 4 7 1 15 -5 11
-9 15 -9 19 1z m519 -61 c-5 -50 -22 -55 -22 -6 0 21 -5 35 -12 36 -7 0 -4 4
7 8 28 12 31 8 27 -38z m-999 -65 c9 -35 0 -66 -10 -38 -4 10 -8 10 -19 1 -16
-13 -18 -2 -8 50 8 41 26 35 37 -13z m481 -18 c3 -13 6 -31 6 -42 0 -15 -3
-16 -14 -7 -11 9 -15 9 -19 -1 -10 -29 -16 1 -6 35 11 42 24 47 33 15z m521
-8 c3 -5 2 -10 -4 -10 -12 0 -11 -41 2 -57 7 -10 4 -13 -12 -13 -18 0 -21 6
-21 45 0 33 4 45 14 45 8 0 18 -4 21 -10z m-520 -135 c0 -29 -4 -41 -16 -43
-13 -2 -18 7 -21 38 -4 46 -1 52 22 48 10 -2 15 -15 15 -43z m3 -124 c4 -37
-14 -57 -35 -39 -24 20 -12 81 16 76 10 -2 17 -15 19 -37z"/>
<path d="M740 1861 c-6 -11 -10 -90 -10 -186 0 -96 4 -175 10 -186 14 -26 55
-24 74 3 13 18 16 54 16 180 0 182 -6 208 -49 208 -20 0 -34 -7 -41 -19z"/>
<path d="M1260 1675 l0 -205 23 0 c51 1 52 6 52 205 0 199 -1 204 -52 205
l-23 0 0 -205z"/>
<path d="M1791 1765 c-13 -71 -26 -177 -22 -180 7 -8 39 -6 44 3 2 4 -1 48 -8
97 -7 50 -13 86 -14 80z"/>
<path d="M1782 920 c0 -14 2 -19 5 -12 2 6 2 18 0 25 -3 6 -5 1 -5 -13z"/>
<path d="M1262 300 c0 -14 2 -19 5 -12 2 6 2 18 0 25 -3 6 -5 1 -5 -13z"/>
<path d="M1262 175 c0 -16 2 -22 5 -12 2 9 2 23 0 30 -3 6 -5 -1 -5 -18z"/>
</g>
</svg>
